<svg xmlns="http://www.w3.org/2000/svg" width="92" height="92" viewBox="0 0 92 92" xml:space="preserve">
<path fill="#fff" d="M64.983 26.128c.332-.189.746-.127 1.11-.077.902.17 1.595.822 2.12 1.51.365-.218.752-.447 1.19-.485.357-.008.654.24.837.513.34.524.456 1.165.865 1.651.098.12.245.185.387.245.58.236 1.108.574 1.613.931.216.129.237.398.317.609.287.91.184 1.869.09 2.798-.021.468-.063.957.103 1.406.252.55.737.954 1.048 1.469.714 1.228 1.287 2.575 1.337 4v.05c-.043.731-.122 1.527-.637 2.107-.424.488-1.11.635-1.738.705-.448.06-.905.073-1.355.044-1.147-.158-2.287-.362-3.434-.525-.204-.03-.432-.032-.6.096-.235.162-.297.454-.323.712-.04.68.08 1.387-.187 2.037-.136.348-.46.576-.76.79-.655.435-1.387.745-2.064 1.143-.099.066-.075.2-.075.3.045.528.2 1.05.152 1.584a1.27 1.27 0 0 1-.432.915c-.461.41-.86.876-1.241 1.353-.063.082-.133.163-.154.266-.158.733-.23 1.485-.444 2.208-.12.37-.25.773-.566 1.034-.38.284-.873-.197-1.259.095-.714.508-.934 1.39-1.427 2.065-.281.343-.662.6-1.083.76-.199 2.52-.375 5.04-.538 7.563h-3.1l.292-4.815c.122-.997-.058-1.986-.187-2.971-.01-.21-.258-.409-.471-.313-.622.173-1.279.265-1.923.167-.522-.131-.921-.506-1.266-.884-1.059.977-2.595 1.311-4.027 1.167-.283-.418-.475-.94-.962-1.181-.323-.187-.719-.09-1.037.056-.729.322-1.167 1.041-1.919 1.33-.66.293-1.415.108-2.046-.168-.676-.312-1.305-.717-1.911-1.14-.312.137-.503.42-.674.69-.581.067-1.179.259-1.754.06-.929-.23-1.575-.953-2.364-1.426-.532.38-.965.91-1.608 1.128-.42.139-.881.23-1.318.12-.495-.105-.965-.289-1.455-.407a.7.7 0 0 0-.484.047c-.86.373-1.319 1.286-2.213 1.603-.184.085-.38.025-.562-.027-.207 2.198-.474 4.392-.695 6.59-1.087.004-2.174 0-3.26.003-.048-.379-.18-.757-.114-1.14.162-1.317.383-2.625.54-3.94.109-1.094-.5-2.104-1.257-2.87a1.4 1.4 0 0 0-.317-1.199c-.744-.951-2.017-1.35-2.728-2.331-.214-.306-.419-.724-.197-1.075.171-.417.564-.796.462-1.274a.73.73 0 0 0-.208-.399c-.642-.685-1.183-1.45-1.71-2.216-.242-.34-.223-.772-.263-1.165-.084-.688.44-1.27.48-1.94-.119-.383-.505-.618-.716-.953-.48-.8-.817-1.696-.863-2.625v-.257c.052-.433.047-.886.238-1.29.313-.58.94-.937 1.245-1.52-.134-.559-.449-1.058-.58-1.615a3.15 3.15 0 0 1 .842-2.334c.399-.02.792-.09 1.181-.171.38-.072.66-.364.87-.66.421-.603.498-1.356.887-1.973.153-.256.364-.493.648-.62a13 13 0 0 1 1.271-.507c.228-.068.468-.137.708-.096.537.077 1.063.208 1.6.288.374.05.792-.05 1.043-.335.228-.244.29-.578.345-.89.555-.176 1.157-.372 1.744-.224.82.18 1.632.387 2.455.553.449-.211.662-.696 1.11-.912.53-.277 1.167-.192 1.723-.037.678.186 1.195.674 1.825.955.44-.253.782-.76 1.347-.736 1.02.256 1.855 1.04 2.94 1.077.737.001 1.067-.78 1.747-.919.447-.131.898.072 1.263.312.447.298.859.64 1.279.97.631-.358 1.35-.625 2.095-.59.87.15 1.709.434 2.577.582.369-.015.58-.374.893-.52a5 5 0 0 1 2.046-.436c.79.098 1.526.41 2.292.6.374-.098.68-.38 1.082-.395.615-.014 1.233-.003 1.848-.004.24-.185.461-.41.756-.52.521-.213 1.046-.481 1.622-.517.596.046 1.185.165 1.778.232.141-.808.505-1.559.889-2.282a17 17 0 0 0 2.196-.561c.443-.28.771-.698 1.178-1.022"/>
</svg>