<svg xmlns="http://www.w3.org/2000/svg" width="92" height="92" viewBox="0 0 92 92" xml:space="preserve">
<path style="font-size:medium;font-style:normal;font-variant:normal;font-weight:400;font-stretch:normal;text-indent:0;text-align:start;text-decoration:none;line-height:normal;letter-spacing:normal;word-spacing:normal;text-transform:none;direction:ltr;block-progression:tb;writing-mode:lr-tb;text-anchor:start;baseline-shift:baseline;color:#000;fill:#fff;fill-opacity:1;stroke:none;stroke-width:3.4383003699999999;marker:none;visibility:visible;display:inline;overflow:visible;font-family:Sans;-inkscape-font-specification:Sans" d="M46.25 16.969c-14.466.003-27.839 10.652-30 25.875l-.031.281c-1.957 14.872 8 29.564 22.844 31.656 2.417.341 4.82.274 7.156-.094l-3.75-3.75c-.953.009-1.917-.02-2.875-.156-12.669-1.785-21.224-14.573-19.406-27.375 2.056-14.485 15.995-24.232 29.968-22.062 9.92 1.54 18.428 8.71 22.063 18.281.305 1.07 1.576 1.709 2.594 1.313s1.56-1.744 1.093-2.75C71.761 27.272 62.135 19.08 50.75 17.312a29 29 0 0 0-4.5-.343m0 11.312c-9.43-.043-18.22 6.941-19.187 17-.81 8.425 4.66 16.73 12.937 18.219.432-1.277 1.2-2.582 2.219-3.812-.154-.002-.315.011-.469 0-6.733-.514-11.433-7.226-10.781-14 .81-8.421 8.85-14.237 16.937-13.282C56.59 33.432 62.786 41.34 63.125 50l3.813 3.813c.002-.021-.003-.042 0-.063l.03-.156c1.493-11.948-6.578-23.768-18.593-25.188l-.219-.031a19 19 0 0 0-1.906-.094m-.437 11.157a8.6 8.6 0 0 0-5.75 2.437c-1.546 1.503-2.602 3.794-2.22 6.281.169 1.056 1.251 1.86 2.282 1.688 1.03-.172 1.824-1.288 1.656-2.344-.167-1.086.206-1.884 1-2.656.783-.762 1.988-1.303 3.063-1.344h.031c1.246-.032 2.383.403 3.344 1.094 1.612-.226 3.445-.143 5.375.156-1.764-3.135-4.889-5.411-8.782-5.312"/><path style="font-size:medium;font-style:normal;font-variant:normal;font-weight:400;font-stretch:normal;text-indent:0;text-align:start;text-decoration:none;line-height:normal;letter-spacing:normal;word-spacing:normal;text-transform:none;direction:ltr;block-progression:tb;writing-mode:lr-tb;text-anchor:start;baseline-shift:baseline;color:#000;fill:#fff;fill-opacity:1;fill-rule:nonzero;stroke:none;stroke-width:4;marker:none;visibility:visible;display:inline;overflow:visible;font-family:Sans;-inkscape-font-specification:Sans" d="M75.036 59.94c-2.268-2.265-4.346-2.935-7.156-3.287l-6.295-6.295-3.886-3.886-3.323-.616c-5.9-1.04-11.027-.373-12.045 5.399-.616 3.496.844 5.733 3.394 7.191l-.458.457c-3.69 3.69-5.226 8.173-2.04 11.359l7.562 7.56c3.186 3.187 7.669 1.65 11.358-2.039l9.548-9.548c.872.206 2.046.628 3.27 2.005 2.484 2.791.987 7.929 2.199 8.95 1.937-.595 4.084-9.28.052-14.682-.767-1.028-1.484-1.872-2.18-2.567m-17.671-9.02L70.13 63.686l-10.04 10.04c-2.405 2.405-4.833 3.782-6.91 1.706l-7.56-7.561c-2.078-2.077-.7-4.506 1.705-6.91l1.283-1.284c1.002.31 2.092.557 3.218.756 1.14.201 8.44 1.486 9.513 1.67 1.073.185 1.581.037 1.951-.334a1.59 1.59 0 0 0 0-2.25c-.224-.225-.5-.376-1.248-.51a8357 8357 0 0 0-9.67-1.723c-.401-.071-.78-.139-1.161-.211l-3.253-.862c-1.851-.754-2.925-1.967-2.497-4.396.707-4.01 4.26-3.558 8.387-2.83l1.143.193-5.908 5.908 3.253.861z"/></svg>