<svg xmlns="http://www.w3.org/2000/svg" width="92" height="92" viewBox="0 0 92 92" xml:space="preserve">
<path fill="#fff" d="M73.05 60.902h-5.14V27.575h-.036c.002-.05.015-.096.015-.146a3.377 3.377 0 0 0-3.376-3.376H31.135v-5.001a1.905 1.905 0 0 0-1.906-1.905h-3.234a1.903 1.903 0 0 0-1.905 1.905v5h-5.14a1.905 1.905 0 0 0-1.905 1.906v3.234a1.903 1.903 0 0 0 1.905 1.906h5.14v33.327h.036c-.002.05-.014.096-.014.146a3.377 3.377 0 0 0 3.376 3.376h33.377v5.001a1.905 1.905 0 0 0 1.906 1.905h3.234a1.903 1.903 0 0 0 1.905-1.905v-5h5.14a1.905 1.905 0 0 0 1.905-1.906v-3.234a1.905 1.905 0 0 0-1.905-1.906m-41.915 0V31.098h29.73v29.805z"/>
  
</svg>