<svg xmlns="http://www.w3.org/2000/svg" width="92" height="92" viewBox="0 0 92 92" xml:space="preserve"><g style="fill:#fff;fill-opacity:1"><path d="M45 22c-1.662 0-3 1.446-3 3.25v21.125c-.677.076-1.346.138-2 .219V29.25c0-1.804-1.338-3.25-3-3.25s-3 1.446-3 3.25v18.156s.063 4.153.116 5.23c-.247.366-.526.45-.741.286-.632-.773-4.156-6.078-4.156-6.078A3.734 3.734 0 0 0 24 45.937a3.74 3.74 0 0 0-.937 5.22s12.565 18.035 13.826 19.626c1.26 1.592 6.894 5.186 11.705 5.186C57.088 75.969 64 70.908 64 60.656V33.25c0-1.804-1.338-3.25-3-3.25s-3 1.446-3 3.25v14.906c-.65-.223-1.325-.409-2-.625V27.25c0-1.804-1.338-3.25-3-3.25s-3 1.446-3 3.25V46a10 10 0 0 0-1.406-.125c-.171 0-.404.026-.594.031V25.25c0-1.804-1.338-3.25-3-3.25" style="fill:#fff;fill-opacity:1;stroke:none" transform="translate(0 -2.984)"/></g></svg>