<svg xmlns="http://www.w3.org/2000/svg" width="92" height="92" viewBox="0 0 92 92" xml:space="preserve"><path style="fill:#fff;fill-opacity:1;stroke:#000;stroke-width:0;stroke-linecap:butt;stroke-linejoin:miter;stroke-miterlimit:4;stroke-opacity:1;stroke-dashoffset:0" d="M62.944 23.603c-3.793-.32-12.441 11.026-18.319 16.904S27.66 56.381 26.771 57.92c-2.156 3.734 5.054 11.128 8.905 8.905C37.55 65.742 47.233 54.87 53.11 48.992s16.905-14.99 16.905-18.318-3.279-6.75-7.071-7.071zm2.96 8.352c-.342 2.558-9.649 9.65-14.849 14.85s-15.68 17.286-17.39 17.39c-1.71.105-4.376-2.574-4.243-4.242s12.191-12.191 17.39-17.39c5.2-5.2 12.582-14.664 14.85-14.85 2.268-.187 4.585 1.685 4.243 4.242z"/><path style="fill:#fff;fill-opacity:1;stroke:#000;stroke-width:0;stroke-linecap:butt;stroke-linejoin:miter;stroke-miterlimit:4;stroke-opacity:1;stroke-dashoffset:0" d="m27.661 59.606 6.364 6.364s-8.17 5.132-9.84 3.462 3.476-9.826 3.476-9.826z"/></svg>