<svg xmlns="http://www.w3.org/2000/svg" width="92" height="92" viewBox="0 0 92 92" xml:space="preserve">
<g fill="#fff">
      <path d="M29.23 55.37a19.6 19.6 0 0 1-.74-4.153h-8.675a28 28 0 0 0 1.261 7.1zm-.206 15.414 5.58-6.602a20 20 0 0 1-4.45-6.287L22 60.841a28.6 28.6 0 0 0 7.023 9.943m18.088-1.08a20 20 0 0 1-10.438-3.79l-5.577 6.598a28.65 28.65 0 0 0 16.015 5.804z" transform="matrix(.97678 0 0 .97204 -1.355 .874)"/>
      <path d="M48.464 21.4v-6.867L28.981 25.698l19.483 11.166v-6.867c11.042 0 20.024 8.916 20.024 19.878 0 10.509-8.258 19.134-18.671 19.828v8.612c15.19-.704 27.33-13.19 27.33-28.44 0-15.701-12.867-28.474-28.683-28.474" transform="matrix(.97678 0 0 .97204 -1.355 .874)"/>
    </g>
</svg>