<svg xmlns="http://www.w3.org/2000/svg" width="92" height="92" viewBox="0 0 92 92" xml:space="preserve"><path style="font-size:medium;font-style:normal;font-variant:normal;font-weight:400;font-stretch:normal;text-indent:0;text-align:start;text-decoration:none;line-height:normal;letter-spacing:normal;word-spacing:normal;text-transform:none;direction:ltr;block-progression:tb;writing-mode:lr-tb;text-anchor:start;baseline-shift:baseline;color:#000;fill:#fff;fill-opacity:1;stroke:none;stroke-width:2;marker:none;visibility:visible;display:inline;overflow:visible;font-family:Sans;-inkscape-font-specification:Sans" d="M54.92 32.15 23.208 63.866s-1.427 3.647-.073 5.001 5.002-.073 5.002-.073L59.849 37.08s1.427-3.647.073-5.001-5.001.073-5.001.073m-4.97 8.3s1.307-1.232 2.07-.47c.762.763-.469 2.07-.469 2.07L27.74 65.86s-1.306 1.231-2.069.469.469-2.069.469-2.069z"/><path style="fill:#fff;fill-opacity:1;stroke:none" d="M65.383 26.558c-1.336-1.337-4.471.167-6.006-.218-1.534-.385-4.453-4.237-6.283-3.746-1.832.49-1.32 5.125-2.28 6.085s-5.574.428-6.065 2.26c-.49 1.828 2.184 5.885 3.39 8.355.722-.095 2.337-.978 2.944-1.154-.73-1.435-3.188-4.77-2.674-5.848.375-.787 3.947-.64 4.587-1.21 1.128-1.005.773-4.373 1.525-4.495.708-.114 2.902 2.775 3.87 3.018.969.243 3.453-1.187 4.297-.344s-.58 3.432-.361 4.28c.22.846 3.056 3.098 2.83 3.786-.22.663-3.194.563-4.274 1.643-.695.696-.77 4.34-1.518 4.408-1.453.133-4.096-1.82-5.436-2.46-.181.639-.944 2.403-1.106 3.01 1.963 1.027 6.397 3.817 8.239 3.323 1.832-.49 1.158-4.963 2.26-6.065s5.594-.448 6.085-2.28c.493-1.84-3.458-5-3.806-6.342-.348-1.343 1.118-4.67-.218-6.006"/></svg>