<svg xmlns="http://www.w3.org/2000/svg" width="92" height="92" viewBox="0 0 92 92" xml:space="preserve"><path style="fill:#fff;fill-opacity:1;stroke:#000;stroke-width:0;stroke-linecap:butt;stroke-linejoin:miter;stroke-miterlimit:4;stroke-opacity:1;stroke-dashoffset:0" d="M60.176 20.644c-3.836.367-11.856 10.858-17.37 16.372-5.693 5.692-16.42 15.366-17.28 16.856-.522.904-.48 2.031-.061 3.177-1.352 2.374-3.622 6.819-2.451 7.99 1.165 1.165 5.573-1.07 7.959-2.421 1.125.403 2.262.407 3.177-.121 1.816-1.049 11.195-11.558 16.887-17.25s16.341-14.511 16.341-17.734c0-3.222-3.166-6.559-6.839-6.87a2 2 0 0 0-.363 0zm-.878 3.994c2.197-.18 4.448 1.639 4.116 4.116-.331 2.477-9.34 9.34-14.375 14.375s-15.2 16.725-16.856 16.826c-.828.05-1.887-.555-2.723-1.392-.837-.838-1.427-1.916-1.362-2.724.13-1.615 11.79-11.79 16.826-16.826 5.035-5.035 12.178-14.194 14.374-14.375zM76 58.277v4.73l-54 9.987v-4.73z"/></svg>