<svg xmlns="http://www.w3.org/2000/svg" width="92" height="92" viewBox="0 0 92 92" xml:space="preserve"><path style="fill:#fff;fill-opacity:1;stroke:#000;stroke-width:0;stroke-linecap:butt;stroke-linejoin:miter;stroke-miterlimit:4;stroke-opacity:1;stroke-dashoffset:0" d="M74.148 33.437c-3.117.3-9.634 8.823-14.114 13.303-4.625 4.625-13.341 12.485-14.04 13.696-.424.734-.39 1.65-.05 2.582-1.098 1.929-2.943 5.54-1.991 6.491.947.947 4.528-.87 6.467-1.967.914.328 1.838.331 2.582-.098 1.475-.852 9.095-9.391 13.72-14.016S80 41.638 80 39.02s-2.573-5.33-5.557-5.582a2 2 0 0 0-.295 0zm-.713 3.246c1.784-.147 3.613 1.332 3.344 3.344-.27 2.013-7.589 7.589-11.68 11.68s-12.35 13.59-13.696 13.671c-.672.041-1.533-.45-2.213-1.13-.68-.682-1.159-1.558-1.106-2.214.105-1.312 9.58-9.58 13.671-13.671s9.895-11.533 11.68-11.68z"/><path style="fill:#fff;fill-opacity:1;stroke:#000;stroke-width:0;stroke-linecap:butt;stroke-linejoin:miter;stroke-miterlimit:4;stroke-opacity:1;stroke-dasharray:none;stroke-dashoffset:0" d="M40 24h2v46h-2z"/><path style="fill:#fff;fill-opacity:1;stroke:#000;stroke-width:0;stroke-linecap:butt;stroke-linejoin:miter;stroke-miterlimit:4;stroke-opacity:1;stroke-dashoffset:0" d="M16 40.5v3.531c.668.748 1.344 1.477 2 2.188v-3.5c-.666-.738-1.328-1.481-2-2.219zm4 4.406v3.438c.078.08.173.173.25.25.467.467 1.165 1.129 1.75 1.687V47l-.031-.031A75 75 0 0 1 20 44.906zm4 4.032v3.25c4.412 4.129 9.827 9.07 9.906 10.062.053.656-.414 1.538-1.093 2.219-.68.68-1.547 1.166-2.22 1.125-.737-.045-3.549-2.918-6.593-6.156v3.312c2.318 2.442 4.332 4.52 5 4.906.744.43 1.68.453 2.594.125 1.938 1.098 5.521 2.916 6.468 1.969.952-.952-.9-4.571-2-6.5.341-.931.362-1.86-.062-2.594-.611-1.058-7.226-7.103-12-11.718zm-8 2.124v3.344c.61.62 1.329 1.363 2 2.063v-3.407c-.342-.353-.792-.823-1.094-1.124-.278-.279-.602-.585-.906-.876zm4 4.094v3.375c.704.744 1.307 1.39 2 2.125v-3.343c-.676-.726-1.355-1.47-2-2.157z"/></svg>