<?xml version="1.0" encoding="UTF-8" standalone="no"?>
<!-- Created with Inkscape (http://www.inkscape.org/) -->

<svg
   xmlns:dc="http://purl.org/dc/elements/1.1/"
   xmlns:cc="http://creativecommons.org/ns#"
   xmlns:rdf="http://www.w3.org/1999/02/22-rdf-syntax-ns#"
   xmlns:svg="http://www.w3.org/2000/svg"
   xmlns="http://www.w3.org/2000/svg"
   xmlns:sodipodi="http://sodipodi.sourceforge.net/DTD/sodipodi-0.dtd"
   xmlns:inkscape="http://www.inkscape.org/namespaces/inkscape"
   width="300"
   height="140.00085"
   id="svg2"
   version="1.1"
   inkscape:version="0.48.4 r9939"
   sodipodi:docname="eye.svg">
  <defs
     id="defs4" />
  <sodipodi:namedview
     id="base"
     pagecolor="#ffffff"
     bordercolor="#666666"
     borderopacity="1.0"
     inkscape:pageopacity="0.0"
     inkscape:pageshadow="2"
     inkscape:zoom="0.98994949"
     inkscape:cx="-6.0052729"
     inkscape:cy="93.159467"
     inkscape:document-units="px"
     inkscape:current-layer="layer1"
     showgrid="false"
     inkscape:window-width="1920"
     inkscape:window-height="1148"
     inkscape:window-x="-8"
     inkscape:window-y="-8"
     inkscape:window-maximized="1"
     fit-margin-top="0"
     fit-margin-left="0"
     fit-margin-right="0"
     fit-margin-bottom="0" />
  <metadata
     id="metadata7">
    <rdf:RDF>
      <cc:Work
         rdf:about="">
        <dc:format>image/svg+xml</dc:format>
        <dc:type
           rdf:resource="http://purl.org/dc/dcmitype/StillImage" />
        <dc:title></dc:title>
      </cc:Work>
    </rdf:RDF>
  </metadata>
  <g
     inkscape:label="Layer 1"
     inkscape:groupmode="layer"
     id="layer1"
     transform="translate(-223.21875,-469.24915)">
    <path
       style="fill:#ffffff;fill-opacity:1;stroke:none"
       d="m 373.21875,469.25 c -63.15236,-0.28299 -150,70 -150,70 0,0 78.75568,70 150,70 62.82091,0 150,-70 150,-70 0,0 -87.47199,-69.71981 -150,-70 z m -1.5,22.3125 c 27.44855,0 49.6875,22.23895 49.6875,49.6875 0,27.44855 -22.23895,49.6875 -49.6875,49.6875 C 344.2702,590.9375 322,568.69855 322,541.25 c 0,-27.44855 22.2702,-49.6875 49.71875,-49.6875 z m 0.0312,18.34375 c -17.85254,0 -32.34375,14.49121 -32.34375,32.34375 0,17.85254 14.49121,32.3125 32.34375,32.3125 17.85254,0 32.3125,-14.45996 32.3125,-32.3125 0,-17.85254 -14.45996,-32.34375 -32.3125,-32.34375 z"
       id="path2987"
       inkscape:export-filename="C:\Development\git\piskel\misc\icons\eye.png"
       inkscape:export-xdpi="28.799999"
       inkscape:export-ydpi="28.799999"
       inkscape:connector-curvature="0" />
  </g>
</svg>
