<?xml version="1.0" encoding="UTF-8" standalone="no"?>
<!-- Created with Inkscape (http://www.inkscape.org/) -->

<svg
   xmlns:dc="http://purl.org/dc/elements/1.1/"
   xmlns:cc="http://creativecommons.org/ns#"
   xmlns:rdf="http://www.w3.org/1999/02/22-rdf-syntax-ns#"
   xmlns:svg="http://www.w3.org/2000/svg"
   xmlns="http://www.w3.org/2000/svg"
   xmlns:sodipodi="http://sodipodi.sourceforge.net/DTD/sodipodi-0.dtd"
   xmlns:inkscape="http://www.inkscape.org/namespaces/inkscape"
   width="770.71875"
   height="581.4375"
   id="svg2"
   version="1.1"
   inkscape:version="0.48.4 r9939"
   sodipodi:docname="mirror.svg"
   inkscape:export-filename="C:\Development\git\piskel\src\img\tools\flip.png"
   inkscape:export-xdpi="35.446629"
   inkscape:export-ydpi="35.446629">
  <defs
     id="defs4" />
  <sodipodi:namedview
     id="base"
     pagecolor="#ffffff"
     bordercolor="#666666"
     borderopacity="1.0"
     inkscape:pageopacity="0.0"
     inkscape:pageshadow="2"
     inkscape:zoom="0.7"
     inkscape:cx="612.40785"
     inkscape:cy="222.08964"
     inkscape:document-units="px"
     inkscape:current-layer="layer1"
     showgrid="false"
     fit-margin-top="0"
     fit-margin-left="0"
     fit-margin-right="0"
     fit-margin-bottom="0"
     inkscape:window-width="1920"
     inkscape:window-height="1148"
     inkscape:window-x="-8"
     inkscape:window-y="-8"
     inkscape:window-maximized="1" />
  <metadata
     id="metadata7">
    <rdf:RDF>
      <cc:Work
         rdf:about="">
        <dc:format>image/svg+xml</dc:format>
        <dc:type
           rdf:resource="http://purl.org/dc/dcmitype/StillImage" />
        <dc:title></dc:title>
      </cc:Work>
    </rdf:RDF>
  </metadata>
  <g
     inkscape:label="Layer 1"
     inkscape:groupmode="layer"
     id="layer1"
     transform="translate(-63.5625,-233.7818)">
    <path
       style="fill:#ffffff;fill-opacity:1;stroke:none"
       d="m 359.2768,233.7907 -295.7143,581.4286 295.7143,0 z"
       id="rect2987"
       inkscape:connector-curvature="0"
       sodipodi:nodetypes="cccc"
       inkscape:export-filename="C:\Development\git\piskel\src\img\tools\flip.png"
       inkscape:export-xdpi="35.446629"
       inkscape:export-ydpi="35.446629" />
    <path
       style="fill:#ffffff;fill-opacity:1;stroke:none"
       d="m 538.5625,233.7818 295.71875,581.4375 -295.71875,0 0,-581.4375 z m 29.125,117.4375 0,434.28125 218.59375,0 L 567.6875,351.2193 z"
       id="rect2987-1"
       inkscape:connector-curvature="0"
       inkscape:export-filename="C:\Development\git\piskel\src\img\tools\flip.png"
       inkscape:export-xdpi="35.446629"
       inkscape:export-ydpi="35.446629" />
    <path
       style="fill:#ffffff;fill-opacity:1;stroke:none"
       d="m 435.5625,233.93805 0,41.28125 25.71875,0 0,-41.28125 -25.71875,0 z m 0,91.28125 0,40 25.71875,0 0,-40 -25.71875,0 z m 0,90 0,40 25.71875,0 0,-40 -25.71875,0 z m 0,90 0,40 25.71875,0 0,-40 -25.71875,0 z m 0,90 0,40 25.71875,0 0,-40 -25.71875,0 z m 0,90 0,40 25.71875,0 0,-40 -25.71875,0 z m 0,90 0,40 25.71875,0 0,-40 -25.71875,0 z"
       id="rect3796"
       inkscape:export-filename="C:\Development\git\piskel\src\img\tools\flip.png"
       inkscape:export-xdpi="35.446629"
       inkscape:export-ydpi="35.446629"
       inkscape:connector-curvature="0" />
  </g>
</svg>
