<?xml version="1.0" encoding="UTF-8" standalone="no"?>
<!-- Created with Inkscape (http://www.inkscape.org/) -->

<svg
   xmlns:dc="http://purl.org/dc/elements/1.1/"
   xmlns:cc="http://creativecommons.org/ns#"
   xmlns:rdf="http://www.w3.org/1999/02/22-rdf-syntax-ns#"
   xmlns:svg="http://www.w3.org/2000/svg"
   xmlns="http://www.w3.org/2000/svg"
   xmlns:sodipodi="http://sodipodi.sourceforge.net/DTD/sodipodi-0.dtd"
   xmlns:inkscape="http://www.inkscape.org/namespaces/inkscape"
   width="484.83377"
   height="430.80322"
   id="svg3775"
   version="1.1"
   inkscape:version="0.48.4 r9939"
   sodipodi:docname="New document 3">
  <defs
     id="defs3777" />
  <sodipodi:namedview
     id="base"
     pagecolor="#ffffff"
     bordercolor="#666666"
     borderopacity="1.0"
     inkscape:pageopacity="0.0"
     inkscape:pageshadow="2"
     inkscape:zoom="0.04375"
     inkscape:cx="-429.81362"
     inkscape:cy="-202.97901"
     inkscape:document-units="px"
     inkscape:current-layer="layer1"
     showgrid="false"
     inkscape:window-width="1920"
     inkscape:window-height="1148"
     inkscape:window-x="-8"
     inkscape:window-y="-8"
     inkscape:window-maximized="1"
     fit-margin-top="0"
     fit-margin-left="0"
     fit-margin-right="0"
     fit-margin-bottom="0" />
  <metadata
     id="metadata3780">
    <rdf:RDF>
      <cc:Work
         rdf:about="">
        <dc:format>image/svg+xml</dc:format>
        <dc:type
           rdf:resource="http://purl.org/dc/dcmitype/StillImage" />
        <dc:title></dc:title>
      </cc:Work>
    </rdf:RDF>
  </metadata>
  <g
     inkscape:label="Layer 1"
     inkscape:groupmode="layer"
     id="layer1"
     transform="translate(-108.38875,-334.08796)">
    <g
       id="g4409">
      <g
         id="g4402" />
      <g
         transform="translate(0,0.82903262)"
         id="g4395">
        <path
           style="font-size:medium;font-style:normal;font-variant:normal;font-weight:normal;font-stretch:normal;text-indent:0;text-align:start;text-decoration:none;line-height:normal;letter-spacing:normal;word-spacing:normal;text-transform:none;direction:ltr;block-progression:tb;writing-mode:lr-tb;text-anchor:start;baseline-shift:baseline;color:#000000;fill:#000000;fill-opacity:1;stroke:none;stroke-width:25;marker:none;visibility:visible;display:inline;overflow:visible;enable-background:accumulate;font-family:Sans;-inkscape-font-specification:Sans"
           d="m 395.27679,333.25893 -27.75,24.625 -1.65625,-9 -15.87054,4.59375 0,30.6875 1.02679,21.75 16.5625,-14.6875 13.6875,-12.15625 c -0.38933,5.52995 -0.57204,11.36571 -0.1875,17.84375 0.60884,10.25666 3.42535,19.47486 9.03125,26.6875 5.6059,7.21264 13.15778,11.83264 21.53125,15.65625 16.74693,7.64722 37.6168,20.19024 63.19196,41.4465 48.42535,40.24771 54.41585,60.33492 63.14228,95.72811 8.30827,46.0064 -4.89609,79.1393 -23.94924,107.24539 -13.61329,20.08154 -30.46397,37.90172 -67.50554,45.41482 -37.04157,7.5131 -71.72672,9.9375 -96.53125,9.9375 l 0,25 c 26.40206,0 62.17269,-2.46078 101.5,-10.4375 39.32731,-7.97672 78.11592,-20.77325 101.8125,-45.5625 25.65093,-26.83371 50.16969,-75.46693 35.5,-151.5 l -0.0312,-0.125 -0.0312,-0.125 c -6.53497,-30.32511 -26.37349,-75.86993 -103.9375,-109.59375 -32.08342,-13.94946 -49.48883,-22.95257 -62.57589,-28.92857 -6.54353,-2.988 -10.31288,-6.85833 -12.36607,-9.5 -2.05319,-2.64167 -3.40095,-5.87935 -3.8125,-12.8125 -0.92607,-15.60085 1.34241,-27.46751 3.71875,-35.3125 2.37634,-7.84499 4.375,-10.875 4.375,-10.875 l -18.875,-16 z"
           id="path3783-2"
           inkscape:connector-curvature="0"
           sodipodi:nodetypes="ccccccccsssscssccsscccsssssccc" />
        <path
           style="font-size:medium;font-style:normal;font-variant:normal;font-weight:normal;font-stretch:normal;text-indent:0;text-align:start;text-decoration:none;line-height:normal;letter-spacing:normal;word-spacing:normal;text-transform:none;direction:ltr;block-progression:tb;writing-mode:lr-tb;text-anchor:start;baseline-shift:baseline;color:#000000;fill:#000000;fill-opacity:1;stroke:none;stroke-width:25;marker:none;visibility:visible;display:inline;overflow:visible;enable-background:accumulate;font-family:Sans;-inkscape-font-specification:Sans"
           d="m 368.02679,382.44643 c 0,0 -18.02679,-4.71234 -18.02679,1.3125 0,33.38646 -0.45698,39.28362 10.99554,62.875 11.45252,23.59138 26.22845,47.86253 48.53571,68.45982 42.18558,38.95183 38.76978,44.87254 45.77232,64.91071 2.57793,7.37689 3.66466,24.51253 1.875,37.96875 -1.78965,13.45623 -6.8081,31.21802 -13.40625,41.3125 -10.36811,15.86211 -18.71831,32.07642 -38.55357,43.09375 C 384.4983,713.88847 366.62548,716.375 350,716.375 l 0,25 c 20.82486,0 44.52967,-5.01706 69.5625,-15.125 25.03283,-10.10794 49.12742,-25.27054 63.71875,-47.59375 9.77369,-14.95272 20.06105,-37.72017 22.33202,-55.91561 2.27097,-18.19544 6.78209,-33.89274 -5.08281,-58.40387 -18.26325,-37.72918 -42.54947,-49.06002 -72.19845,-74.15863 -18.35479,-15.5378 -34.85805,-33.83125 -44.86772,-54.45046 -10.00967,-20.61921 -14.81706,-41.55822 -15.4375,-53.28125 z"
           id="path3783-9-4-2"
           inkscape:connector-curvature="0"
           sodipodi:nodetypes="csssszssccssssssc" />
        <path
           style="font-size:medium;font-style:normal;font-variant:normal;font-weight:normal;font-stretch:normal;text-indent:0;text-align:start;text-decoration:none;line-height:normal;letter-spacing:normal;word-spacing:normal;text-transform:none;direction:ltr;block-progression:tb;writing-mode:lr-tb;text-anchor:start;baseline-shift:baseline;color:#000000;fill:#000000;fill-opacity:1;stroke:none;stroke-width:25;marker:none;visibility:visible;display:inline;overflow:visible;enable-background:accumulate;font-family:Sans;-inkscape-font-specification:Sans"
           d="M 364.71429,398.50893 350,399.85268 c 0.74677,14.10988 0,43.14662 0,70.71875 0,13.09078 2.17726,28.99404 4.22321,39.97321 3.9423,21.15552 10.51352,34.8833 14.63393,48.16965 3.27485,10.5598 6.94665,25.34012 9.3884,31.02232 6.61244,15.3878 7.52886,34.1921 0.75446,55.84375 -6.86056,21.92704 -17.55684,42.94479 -35.42857,49.84375 L 350,716.625 c 25.86119,-9.9831 62.03992,-38.1333 71.93512,-69.75936 8.9188,-28.50537 3.28613,-54.26844 -4.84375,-73.1875 -4.92941,-11.47123 -9.61575,-19.37277 -14.86607,-28.9375 -6.46007,-11.76857 -20.1885,-26.52209 -24.11895,-38.53817 -3.57466,-10.92835 -7.82736,-24.14439 -8.92331,-37.66229 -2.1919,-27.03581 -3.63369,-54.77948 -4.46875,-70.03125 z"
           id="path3783-9-4-4-8-8"
           inkscape:connector-curvature="0"
           sodipodi:nodetypes="ccsssssccsssssc" />
      </g>
    </g>
    <path
       style="font-size:medium;font-style:normal;font-variant:normal;font-weight:normal;font-stretch:normal;text-indent:0;text-align:start;text-decoration:none;line-height:normal;letter-spacing:normal;word-spacing:normal;text-transform:none;direction:ltr;block-progression:tb;writing-mode:lr-tb;text-anchor:start;baseline-shift:baseline;color:#000000;fill:#000000;fill-opacity:1;stroke:none;stroke-width:25;marker:none;visibility:visible;display:inline;overflow:visible;enable-background:accumulate;font-family:Sans;-inkscape-font-specification:Sans"
       d="m 306.33447,334.11887 27.75,24.625 1.65625,-9 15.87054,4.59375 0,30.6875 -1.02679,21.75 -16.5625,-14.6875 -13.6875,-12.15625 c 0.38933,5.52995 0.57204,11.36571 0.1875,17.84375 -0.60884,10.25666 0.61526,20.48501 -4.99064,27.69765 -5.6059,7.21264 -12.14763,16.88341 -20.5211,20.70702 -16.74693,7.64722 -36.60664,20.19024 -62.1818,41.4465 -48.42535,40.24771 -47.34479,51.24354 -56.07122,86.63673 -3.25751,47.01655 -5.92183,46.3581 4.75635,78.96112 6.45302,19.70261 22.38275,38.91187 59.42432,56.52649 34.13302,16.23151 85.86885,30.14056 110.67338,30.14056 l 0,25 c -26.40206,0 -62.17269,-2.46078 -101.5,-10.4375 -39.32731,-7.97672 -78.11592,-20.77325 -101.8125,-45.5625 -25.65093,-26.83371 -50.169693,-75.46693 -35.5,-151.5 l 0.0312,-0.125 0.0312,-0.125 c 6.53497,-30.32511 26.37349,-75.86993 103.9375,-109.59375 32.08342,-13.94946 49.48883,-22.95257 62.57589,-28.92857 6.54353,-2.988 10.31288,-6.85833 12.36607,-9.5 2.05319,-2.64167 3.40095,-5.87935 3.8125,-12.8125 0.92607,-15.60085 -1.34241,-27.46751 -3.71875,-35.3125 -2.37634,-7.84499 -4.375,-10.875 -4.375,-10.875 l 18.875,-16 z"
       id="path3783-2-4"
       inkscape:connector-curvature="0"
       sodipodi:nodetypes="ccccccccsssscssccsscccsssssccc" />
    <path
       style="font-size:medium;font-style:normal;font-variant:normal;font-weight:normal;font-stretch:normal;text-indent:0;text-align:start;text-decoration:none;line-height:normal;letter-spacing:normal;word-spacing:normal;text-transform:none;direction:ltr;block-progression:tb;writing-mode:lr-tb;text-anchor:start;baseline-shift:baseline;color:#000000;fill:#000000;fill-opacity:1;stroke:none;stroke-width:25;marker:none;visibility:visible;display:inline;overflow:visible;enable-background:accumulate;font-family:Sans;-inkscape-font-specification:Sans"
       d="m 343.97613,380.44701 9.00001,12.77232 c -0.74677,14.10988 0,43.14662 0,70.71875 0,13.09078 3.53703,30.42261 1.49108,41.40178 -3.9423,21.15552 -3.37067,28.45473 -7.49108,41.74108 -3.27485,10.5598 -6.94665,28.91155 -9.3884,34.59375 -6.61244,15.3878 -8.24315,50.62067 -1.46875,72.27232 6.86056,21.92704 11.12828,50.08764 21.85715,66.27232 l 3.98985,41.15013 C 338.24766,729.2435 314.3133,692.32754 304.4181,660.70148 c -8.9188,-28.50537 -8.28613,-78.55416 -0.15625,-97.47322 4.92941,-11.47123 9.61575,-22.9442 14.86607,-32.50893 6.46007,-11.76857 10.13774,-23.49163 13.05804,-36.51786 2.51528,-11.21964 6.93976,-29.49102 8.03571,-43.00892 2.1919,-27.03581 2.9194,-55.49377 3.75446,-70.74554 z"
       id="path3783-9-4-4-8-8-7"
       inkscape:connector-curvature="0"
       sodipodi:nodetypes="ccsssssccsssssc" />
  </g>
</svg>
