<?xml version="1.0" encoding="UTF-8" standalone="no"?>
<!-- Created with Inkscape (http://www.inkscape.org/) -->

<svg
   xmlns:dc="http://purl.org/dc/elements/1.1/"
   xmlns:cc="http://creativecommons.org/ns#"
   xmlns:rdf="http://www.w3.org/1999/02/22-rdf-syntax-ns#"
   xmlns:svg="http://www.w3.org/2000/svg"
   xmlns="http://www.w3.org/2000/svg"
   xmlns:sodipodi="http://sodipodi.sourceforge.net/DTD/sodipodi-0.dtd"
   xmlns:inkscape="http://www.inkscape.org/namespaces/inkscape"
   width="305.0015"
   height="340.10172"
   id="svg2"
   version="1.1"
   inkscape:version="0.48.4 r9939"
   inkscape:export-filename="C:\Development\git\piskel\src\img\tools\swap.png"
   inkscape:export-xdpi="28.799999"
   inkscape:export-ydpi="28.799999"
   sodipodi:docname="swap-colors.svg">
  <defs
     id="defs2994" />
  <sodipodi:namedview
     id="base"
     pagecolor="#ffffff"
     bordercolor="#666666"
     borderopacity="1.0"
     inkscape:pageopacity="0.0"
     inkscape:pageshadow="2"
     inkscape:zoom="1.979899"
     inkscape:cx="8.3838947"
     inkscape:cy="209.5365"
     inkscape:document-units="px"
     inkscape:current-layer="layer1"
     showgrid="false"
     inkscape:window-width="1920"
     inkscape:window-height="1148"
     inkscape:window-x="-8"
     inkscape:window-y="-8"
     inkscape:window-maximized="1"
     fit-margin-top="0"
     fit-margin-left="0"
     fit-margin-right="0"
     fit-margin-bottom="0" />
  <metadata
     id="metadata7">
    <rdf:RDF>
      <cc:Work
         rdf:about="">
        <dc:format>image/svg+xml</dc:format>
        <dc:type
           rdf:resource="http://purl.org/dc/dcmitype/StillImage" />
        <dc:title></dc:title>
      </cc:Work>
    </rdf:RDF>
  </metadata>
  <g
     inkscape:label="Layer 1"
     inkscape:groupmode="layer"
     id="layer1"
     transform="translate(-253.81175,62.601668)">
    <path
       style="fill:none;stroke:#ffffff;stroke-width:25;stroke-linecap:butt;stroke-linejoin:round;stroke-miterlimit:4;stroke-opacity:1;stroke-dasharray:none"
       d="m 281.31983,48.818994 c 3.33333,70.714286 6.66667,141.428566 10,212.142856 61.21871,3.33294 122.57845,5.69263 183.84823,2.1217 15.38711,-0.63513 30.77146,-1.33859 46.15177,-2.1217 3.33333,-70.71429 6.66667,-141.42857 10,-212.142856 -62.39939,12.482847 -126.73342,18.836303 -190.05871,9.668003 -20.08786,-2.492087 -40.09989,-5.6543 -59.94129,-9.668003 z"
       id="path3907"
       inkscape:connector-curvature="0"
       inkscape:export-filename="C:\Development\git\piskel\src\img\tools\swap.png"
       inkscape:export-xdpi="28.799999"
       inkscape:export-ydpi="28.799999" />
    <path
       style="fill:none;stroke:#ffffff;stroke-width:15;stroke-linecap:round;stroke-linejoin:miter;stroke-miterlimit:4;stroke-opacity:1;stroke-dasharray:none"
       d="m 261.31983,63.818994 c 0,-10 0,-20 0,-30 17.1189,-42.7715577 62.54009,-66.510405 106.22509,-72.841714 51.17865,-7.022275 108.04464,-2.652241 150.47229,29.6746917 14.38134,11.798678 28.46011,26.7242963 33.30262,44.9943353 0,9.390896 0,18.781791 0,28.172687"
       id="path3909"
       inkscape:connector-curvature="0"
       inkscape:export-filename="C:\Development\git\piskel\src\img\tools\swap.png"
       inkscape:export-xdpi="28.799999"
       inkscape:export-ydpi="28.799999" />
    <path
       style="fill:none;stroke:#ffffff;stroke-width:35;stroke-linecap:round;stroke-linejoin:miter;stroke-miterlimit:4;stroke-opacity:1;stroke-dasharray:none"
       d="m 364.53412,-41.538146 c 25.60486,-3.886191 51.66473,-4.881507 77.20839,0.0707 l 3.09159,0.466979 1.12859,0.176599"
       id="path3915"
       inkscape:connector-curvature="0"
       inkscape:export-filename="C:\Development\git\piskel\src\img\tools\swap.png"
       inkscape:export-xdpi="28.799999"
       inkscape:export-ydpi="28.799999" />
    <path
       style="fill:#ffffff;fill-opacity:1;stroke:#ffffff;stroke-width:1px;stroke-linecap:butt;stroke-linejoin:miter;stroke-opacity:1"
       d="m 154.55334,129.87795 0.68071,15.85947 c 0,0 -57.346456,21.06263 -57.436416,36.51009 -0.09,15.44746 36.662436,29.96772 55.746256,42.34379 19.08382,12.37606 46.83462,28.70031 47.51123,48.36912 C 200.90809,289.78491 152.86,310.7174 152.86,310.7174 l 0.68319,14.23203 111.11677,-2.02031 11.11168,-206.07112 z"
       id="path3764"
       inkscape:connector-curvature="0"
       transform="translate(253.81175,-62.601668)"
       sodipodi:nodetypes="cczzcccccc"
       inkscape:export-filename="C:\Development\git\piskel\src\img\tools\swap.png"
       inkscape:export-xdpi="28.799999"
       inkscape:export-ydpi="28.799999" />
  </g>
</svg>
