<?xml version="1.0" encoding="UTF-8" standalone="no"?>
<!-- Generator: Adobe Illustrator 15.1.0, SVG Export Plug-In . SVG Version: 6.00 Build 0)  -->

<svg
   xmlns:dc="http://purl.org/dc/elements/1.1/"
   xmlns:cc="http://creativecommons.org/ns#"
   xmlns:rdf="http://www.w3.org/1999/02/22-rdf-syntax-ns#"
   xmlns:svg="http://www.w3.org/2000/svg"
   xmlns="http://www.w3.org/2000/svg"
   xmlns:sodipodi="http://sodipodi.sourceforge.net/DTD/sodipodi-0.dtd"
   xmlns:inkscape="http://www.inkscape.org/namespaces/inkscape"
   version="1.1"
   id="Layer_1"
   x="0px"
   y="0px"
   width="92"
   height="92"
   viewBox="0 0 91.999998 91.999998"
   enable-background="new 0 0 99.997 69.373"
   xml:space="preserve"
   inkscape:version="0.48.4 r9939"
   sodipodi:docname="tool-clone.svg"><metadata
   id="metadata9"><rdf:RDF><cc:Work
       rdf:about=""><dc:format>image/svg+xml</dc:format><dc:type
         rdf:resource="http://purl.org/dc/dcmitype/StillImage" /><dc:title></dc:title></cc:Work></rdf:RDF></metadata><defs
   id="defs7" /><sodipodi:namedview
   pagecolor="#ffffff"
   bordercolor="#666666"
   borderopacity="1"
   objecttolerance="10"
   gridtolerance="10"
   guidetolerance="10"
   inkscape:pageopacity="0"
   inkscape:pageshadow="2"
   inkscape:window-width="1920"
   inkscape:window-height="1148"
   id="namedview5"
   showgrid="false"
   inkscape:zoom="3.1600948"
   inkscape:cx="0.63289242"
   inkscape:cy="34.686501"
   inkscape:window-x="-8"
   inkscape:window-y="-8"
   inkscape:window-maximized="1"
   inkscape:current-layer="Layer_1" />
<path
   d="m 64.983449,26.127731 c 0.331817,-0.188552 0.745237,-0.126278 1.110056,-0.07669 0.901245,0.170678 1.594879,0.822251 2.119906,1.510728 0.364818,-0.218537 0.751237,-0.448029 1.189859,-0.485509 0.357018,-0.0086 0.654033,0.239872 0.836441,0.51261 0.340818,0.524142 0.456024,1.16476 0.865244,1.651422 0.09781,0.120512 0.245412,0.185093 0.387018,0.244484 0.58083,0.235835 1.107657,0.574307 1.612882,0.931231 0.216611,0.128585 0.237611,0.398441 0.317416,0.608905 0.286814,0.910473 0.183609,1.868805 0.0894,2.798306 -0.021,0.468211 -0.0624,0.956603 0.103206,1.405785 0.252012,0.550089 0.737436,0.954296 1.047652,1.468635 0.714636,1.228188 1.287664,2.575734 1.337467,3.99997 v 0.05074 c -0.0426,0.731147 -0.121806,1.526297 -0.637233,2.106371 -0.42422,0.487815 -1.110055,0.634851 -1.737686,0.705198 -0.448222,0.05997 -0.904845,0.07323 -1.354869,0.0444 -1.147257,-0.158569 -2.287314,-0.362114 -3.43457,-0.525296 -0.204011,-0.02998 -0.431422,-0.03171 -0.60003,0.09629 -0.234612,0.162028 -0.296415,0.453218 -0.322216,0.712118 -0.0408,0.678674 0.0798,1.386756 -0.18721,2.0366 -0.136207,0.348275 -0.460823,0.576037 -0.759639,0.790537 -0.655231,0.434191 -1.387868,0.744409 -2.064702,1.142272 -0.0984,0.06631 -0.075,0.200662 -0.075,0.300416 0.045,0.528178 0.19921,1.050014 0.151809,1.583958 -0.0126,0.344239 -0.162608,0.685018 -0.432023,0.915086 -0.460823,0.40882 -0.860443,0.875877 -1.240861,1.352736 -0.0624,0.08188 -0.133206,0.163182 -0.153608,0.265819 -0.158407,0.733453 -0.231012,1.485358 -0.444023,2.208431 -0.120606,0.36961 -0.249612,0.772663 -0.565828,1.033869 -0.379819,0.283694 -0.873644,-0.197202 -1.258863,0.09457 -0.714635,0.508573 -0.934846,1.390792 -1.427471,2.06543 -0.281414,0.343085 -0.662433,0.599102 -1.083053,0.760554 -0.198611,2.519802 -0.37502,5.040181 -0.537627,7.56229 h -3.099756 c 0.096,-1.604716 0.192011,-3.210009 0.291615,-4.815302 0.121806,-0.996389 -0.0582,-1.985858 -0.18721,-2.970714 -0.0102,-0.209888 -0.258013,-0.40882 -0.471023,-0.313102 -0.622231,0.172985 -1.278664,0.264666 -1.922496,0.166642 -0.522027,-0.130892 -0.921647,-0.505691 -1.266064,-0.883949 -1.059053,0.97736 -2.595729,1.311796 -4.027401,1.167643 -0.282614,-0.418622 -0.475224,-0.939304 -0.961848,-1.181482 -0.323416,-0.186823 -0.718836,-0.08937 -1.037452,0.05651 -0.728436,0.321751 -1.167058,1.040788 -1.918296,1.329095 -0.660033,0.294073 -1.415471,0.108403 -2.046102,-0.167795 -0.676234,-0.311371 -1.305665,-0.716154 -1.911696,-1.138812 -0.312015,0.136081 -0.502225,0.419775 -0.673833,0.689054 -0.580829,0.06746 -1.178459,0.258899 -1.753888,0.05939 -0.928846,-0.230069 -1.575079,-0.952566 -2.364118,-1.425389 -0.531627,0.380565 -0.964848,0.911049 -1.60808,1.128433 -0.418821,0.138387 -0.880844,0.230069 -1.317666,0.119359 -0.495025,-0.104367 -0.965449,-0.288307 -1.455073,-0.406513 -0.162008,-0.04498 -0.334817,-0.02133 -0.484224,0.04728 -0.859843,0.372493 -1.318266,1.285849 -2.212911,1.60241 -0.184209,0.08534 -0.379219,0.0248 -0.561628,-0.0271 -0.20761,2.198052 -0.474024,4.392644 -0.695435,6.590696 -1.086654,0.0035 -2.173908,-0.0012 -3.260562,0.0023 -0.0468,-0.378249 -0.178209,-0.756508 -0.112806,-1.140532 0.162008,-1.315833 0.382219,-2.62417 0.540027,-3.940003 0.108606,-1.092683 -0.501025,-2.103487 -1.257663,-2.869807 0.0924,-0.424964 -0.0336,-0.866073 -0.316815,-1.198203 -0.744038,-0.951413 -2.017301,-1.35043 -2.727737,-2.33125 -0.21421,-0.305605 -0.418821,-0.724227 -0.19681,-1.074808 0.171009,-0.417468 0.564029,-0.796304 0.461423,-1.274316 -0.024,-0.151073 -0.09901,-0.289461 -0.20821,-0.398441 -0.642032,-0.685017 -1.182659,-1.449607 -1.709485,-2.216503 -0.241812,-0.340202 -0.223212,-0.771509 -0.262814,-1.16476 -0.0846,-0.688477 0.439222,-1.269127 0.478824,-1.939729 -0.117605,-0.383448 -0.504025,-0.618706 -0.715235,-0.953719 -0.480024,-0.799187 -0.816641,-1.695245 -0.862843,-2.624169 v -0.25717 c 0.0516,-0.433037 0.0468,-0.886256 0.237611,-1.291039 0.313216,-0.580073 0.939647,-0.935844 1.245063,-1.519954 -0.133207,-0.558162 -0.448223,-1.056933 -0.579629,-1.613942 -0.0582,-0.845315 0.255012,-1.703893 0.842442,-2.334709 0.39842,-0.02018 0.791439,-0.09053 1.180859,-0.170678 0.379819,-0.07208 0.660033,-0.363843 0.868843,-0.660222 0.421821,-0.602562 0.499225,-1.35562 0.887445,-1.973173 0.153007,-0.256016 0.364218,-0.493005 0.648032,-0.619283 0.415221,-0.188553 0.837042,-0.363843 1.271464,-0.50742 0.228011,-0.06746 0.467423,-0.136658 0.708035,-0.09629 0.536427,0.07727 1.062653,0.208158 1.59908,0.288307 0.374419,0.05074 0.792639,-0.04901 1.044052,-0.334436 0.227412,-0.244484 0.289815,-0.578344 0.344418,-0.890292 0.555626,-0.176444 1.157458,-0.372492 1.744287,-0.224302 0.820241,0.179326 1.632081,0.387484 2.454722,0.553549 0.448822,-0.211617 0.662433,-0.69655 1.109456,-0.912203 0.530426,-0.277351 1.168257,-0.192013 1.723885,-0.0369 0.678035,0.18567 1.19466,0.673485 1.824691,0.954296 0.441023,-0.252557 0.78244,-0.758823 1.347668,-0.735182 1.018852,0.256016 1.854692,1.039634 2.939548,1.077114 0.737436,5.77e-4 1.067453,-0.780735 1.747287,-0.919122 0.446422,-0.131468 0.897644,0.07208 1.262462,0.311371 0.447023,0.29811 0.859244,0.640042 1.279265,0.971018 0.631232,-0.358654 1.350667,-0.625626 2.095305,-0.591606 0.868843,0.150496 1.708285,0.434767 2.576528,0.582957 0.369019,-0.01499 0.580229,-0.374223 0.893445,-0.520106 0.637232,-0.286577 1.342267,-0.435343 2.045502,-0.43592 0.78964,0.09745 1.525877,0.410549 2.292115,0.600832 0.373819,-0.0986 0.681034,-0.379989 1.081854,-0.395557 0.615631,-0.01442 1.233062,-0.0035 1.848092,-0.0046 0.240612,-0.185093 0.461423,-0.408819 0.756038,-0.518953 0.521426,-0.213347 1.046452,-0.482049 1.621881,-0.517799 0.59643,0.04613 1.185059,0.165488 1.778489,0.231799 0.141007,-0.807836 0.505225,-1.558587 0.888644,-2.282238 0.744638,-0.130891 1.477874,-0.334436 2.19611,-0.561045 0.442822,-0.279081 0.771039,-0.697703 1.178459,-1.02176 z"
   id="path3"
   inkscape:connector-curvature="0"
   style="fill:#ffffff;fill-opacity:1" />
</svg>