<svg xmlns="http://www.w3.org/2000/svg" width="92" height="92" viewBox="0 0 92 92" xml:space="preserve"><path transform="rotate(45, 50, 50)" fill="#fff" d="M56.581 27.281c-4.029.002-6.47 1.253-9.281 3.438H29.206l-3.5 2.406c-6.166 4.318-10.13 9.467-5.906 15.5 2.559 3.655 5.845 4.345 9.406 3.375v.813c0 6.557 2.618 11.906 8.281 11.906h13.438c5.663 0 8.281-5.35 8.281-11.906v-16.97c.958-.591 2.376-1.26 4.688-1.124 4.687.274 7.922 6.17 9.906 6 1.193-2.25-4.616-11.875-13-13.094-1.595-.232-2.983-.344-4.219-.344M32.862 34.97H55.55v17.844c0 4.273-.934 7.656-4.625 7.656H37.487c-3.69 0-4.625-3.383-4.625-7.657v-2.28a34 34 0 0 0 3.532-2.188c1.192-.835 8.82-6.179 9.937-6.969 1.118-.79 1.438-1.373 1.438-2.031a2 2 0 0 0-2-2c-.4 0-.779.11-1.563.656-.784.545-8.897 6.203-10.125 7.063-.418.292-.815.569-1.219.843l-3.656 2.125c-2.315.975-4.347.852-6.125-1.687-2.935-4.192.624-6.949 4.938-9.969l1.187-.844v10.5l3.656-2.125z"/></svg>