<?xml version="1.0" encoding="UTF-8" standalone="no"?>
<!-- Generator: Adobe Illustrator 15.1.0, SVG Export Plug-In . SVG Version: 6.00 Build 0)  -->

<svg
   xmlns:dc="http://purl.org/dc/elements/1.1/"
   xmlns:cc="http://creativecommons.org/ns#"
   xmlns:rdf="http://www.w3.org/1999/02/22-rdf-syntax-ns#"
   xmlns:svg="http://www.w3.org/2000/svg"
   xmlns="http://www.w3.org/2000/svg"
   xmlns:sodipodi="http://sodipodi.sourceforge.net/DTD/sodipodi-0.dtd"
   xmlns:inkscape="http://www.inkscape.org/namespaces/inkscape"
   version="1.1"
   id="Layer_1"
   x="0px"
   y="0px"
   width="92"
   height="92"
   viewBox="0 0 91.999998 91.999998"
   enable-background="new 0 0 99.997 69.373"
   xml:space="preserve"
   inkscape:version="0.48.4 r9939"
   sodipodi:docname="tool-colorswap.svg"
   inkscape:export-filename="C:\Development\git\piskel\misc\icons\source\tool-paint-bucket@2x.png"
   inkscape:export-xdpi="90"
   inkscape:export-ydpi="90"><metadata
   id="metadata9"><rdf:RDF><cc:Work
       rdf:about=""><dc:format>image/svg+xml</dc:format><dc:type
         rdf:resource="http://purl.org/dc/dcmitype/StillImage" /><dc:title></dc:title></cc:Work></rdf:RDF></metadata><defs
   id="defs7" /><sodipodi:namedview
   pagecolor="#ffffff"
   bordercolor="#666666"
   borderopacity="1"
   objecttolerance="10"
   gridtolerance="10"
   guidetolerance="10"
   inkscape:pageopacity="0"
   inkscape:pageshadow="2"
   inkscape:window-width="1920"
   inkscape:window-height="1148"
   id="namedview5"
   showgrid="false"
   inkscape:zoom="2.8284271"
   inkscape:cx="-77.447714"
   inkscape:cy="52.784711"
   inkscape:window-x="-8"
   inkscape:window-y="-8"
   inkscape:window-maximized="1"
   inkscape:current-layer="Layer_1" />

<path
   style="font-size:medium;font-style:normal;font-variant:normal;font-weight:normal;font-stretch:normal;text-indent:0;text-align:start;text-decoration:none;line-height:normal;letter-spacing:normal;word-spacing:normal;text-transform:none;direction:ltr;block-progression:tb;writing-mode:lr-tb;text-anchor:start;baseline-shift:baseline;color:#000000;fill:#ffffff;fill-opacity:1;stroke:none;stroke-width:3.43830036999999990;marker:none;visibility:visible;display:inline;overflow:visible;enable-background:accumulate;font-family:Sans;-inkscape-font-specification:Sans"
   d="M 46.25 16.96875 C 31.783535 16.97245 18.410981 27.62145 16.25 42.84375 L 16.21875 43.125 C 14.261923 57.996821 24.21985 72.689404 39.0625 74.78125 C 41.480463 75.122024 43.882061 75.054665 46.21875 74.6875 L 42.46875 70.9375 C 41.515736 70.945639 40.552446 70.916362 39.59375 70.78125 C 26.925293 68.995824 18.370161 56.20788 20.1875 43.40625 C 22.243799 28.921355 36.182536 19.173751 50.15625 21.34375 C 60.076387 22.884263 68.583951 30.053319 72.21875 39.625 C 72.524486 40.694536 73.795381 41.334004 74.8125 40.9375 C 75.829618 40.540996 76.372549 39.194444 75.90625 38.1875 C 71.761114 27.271926 62.134522 19.08042 50.75 17.3125 C 49.241167 17.078191 47.746531 16.968364 46.25 16.96875 z M 46.25 28.28125 C 36.819448 28.23764 28.029719 35.22238 27.0625 45.28125 C 26.25244 53.705714 31.723001 62.01095 40 63.5 C 40.432423 62.222877 41.20052 60.918367 42.21875 59.6875 C 42.06461 59.686494 41.904458 59.699284 41.75 59.6875 C 35.017017 59.173826 30.317367 52.461741 30.96875 45.6875 C 31.778437 37.266919 39.818814 31.450908 47.90625 32.40625 C 56.589176 33.431935 62.786265 41.338733 63.125 50 L 66.9375 53.8125 C 66.94024 53.791796 66.934789 53.77076 66.9375 53.75 L 66.96875 53.59375 C 68.461475 41.645747 60.389657 29.825501 48.375 28.40625 L 48.15625 28.375 C 47.524176 28.308219 46.878703 28.284157 46.25 28.28125 z M 45.8125 39.4375 C 43.673764 39.49185 41.607649 40.371934 40.0625 41.875 C 38.517351 43.378067 37.461215 45.66893 37.84375 48.15625 C 38.011536 49.211784 39.094165 50.015556 40.125 49.84375 C 41.155835 49.671945 41.949036 48.555534 41.78125 47.5 C 41.614192 46.413754 41.986931 45.616435 42.78125 44.84375 C 43.563966 44.082351 44.768579 43.541459 45.84375 43.5 L 45.875 43.5 C 47.120829 43.46834 48.258363 43.902835 49.21875 44.59375 C 50.831294 44.368471 52.663952 44.450674 54.59375 44.75 C 52.829609 41.614921 49.705423 39.338573 45.8125 39.4375 z "
   id="path4688" /><path
   inkscape:export-xdpi="45"
   inkscape:export-ydpi="45"
   style="font-size:medium;font-style:normal;font-variant:normal;font-weight:normal;font-stretch:normal;text-indent:0;text-align:start;text-decoration:none;line-height:normal;letter-spacing:normal;word-spacing:normal;text-transform:none;direction:ltr;block-progression:tb;writing-mode:lr-tb;text-anchor:start;baseline-shift:baseline;color:#000000;fill:#ffffff;fill-opacity:1;fill-rule:nonzero;stroke:none;stroke-width:4;marker:none;visibility:visible;display:inline;overflow:visible;enable-background:accumulate;font-family:Sans;-inkscape-font-specification:Sans"
   d="m 75.035981,59.940655 c -2.26793,-2.265903 -4.34567,-2.935856 -7.1564,-3.288076 l -6.29481,-6.29482 -3.8859,-3.885907 -3.32325,-0.615415 c -5.898961,-1.040147 -11.02695,-0.373026 -12.04455,5.398071 -0.61646,3.496134 0.84367,5.733668 3.39357,7.191566 l -0.45716,0.457166 c -3.68959,3.689589 -5.2262,8.17227 -2.03966,11.358805 l 7.56081,7.560815 c 3.18654,3.186538 7.66922,1.649927 11.35881,-2.039662 l 9.54772,-9.547725 c 0.87175,0.205641 2.04585,0.627772 3.27049,2.004496 2.48298,2.791331 0.98609,7.928992 2.19791,8.949893 1.93735,-0.594631 4.08451,-9.278917 0.0528,-14.682046 -0.76706,-1.027972 -1.4847,-1.872156 -2.18033,-2.567161 z m -17.6712,-9.02023 12.76546,12.765471 -10.04005,10.040057 c -2.40472,2.404723 -4.83337,3.782434 -6.91023,1.705579 l -7.56082,-7.560812 c -2.07685,-2.076856 -0.69914,-4.505512 1.70558,-6.910234 L 48.6083,59.676905 c 1.002041,0.309412 2.091661,0.557522 3.217751,0.756081 1.14049,0.2011 8.4393,1.486168 9.51256,1.670414 1.07326,0.184246 1.58152,0.03614 1.95174,-0.334083 0.62151,-0.621502 0.62151,-1.629159 0,-2.250661 -0.22465,-0.224652 -0.50059,-0.375467 -1.24841,-0.509916 -0.74782,-0.134448 -8.49633,-1.516069 -9.67081,-1.723163 -0.40026,-0.07058 -0.77901,-0.138213 -1.1605,-0.210999 l -3.25291,-0.861582 c -1.85109,-0.754079 -2.92512,-1.966837 -2.49683,-4.395823 0.70707,-4.009964 4.26085,-3.558504 8.38724,-2.83091 l 1.14291,0.193417 -5.907991,5.907986 3.252911,0.861581 z"
   id="rect4589-7-4-2"
   inkscape:connector-curvature="0"
   sodipodi:nodetypes="sccccscsssscscssccsssscssssssccsccccc" /></svg>