<?xml version="1.0" encoding="UTF-8" standalone="no"?>
<!-- Generator: Adobe Illustrator 15.1.0, SVG Export Plug-In . SVG Version: 6.00 Build 0)  -->

<svg
   xmlns:dc="http://purl.org/dc/elements/1.1/"
   xmlns:cc="http://creativecommons.org/ns#"
   xmlns:rdf="http://www.w3.org/1999/02/22-rdf-syntax-ns#"
   xmlns:svg="http://www.w3.org/2000/svg"
   xmlns="http://www.w3.org/2000/svg"
   xmlns:sodipodi="http://sodipodi.sourceforge.net/DTD/sodipodi-0.dtd"
   xmlns:inkscape="http://www.inkscape.org/namespaces/inkscape"
   version="1.1"
   id="Layer_1"
   x="0px"
   y="0px"
   width="92"
   height="92"
   viewBox="0 0 91.999998 91.999998"
   enable-background="new 0 0 99.997 69.373"
   xml:space="preserve"
   inkscape:version="0.48.4 r9939"
   sodipodi:docname="tool-stroke.svg"
   inkscape:export-filename="C:\Development\git\piskel\misc\icons\source\tool-stroke@2x.png"
   inkscape:export-xdpi="90"
   inkscape:export-ydpi="90"><metadata
   id="metadata9"><rdf:RDF><cc:Work
       rdf:about=""><dc:format>image/svg+xml</dc:format><dc:type
         rdf:resource="http://purl.org/dc/dcmitype/StillImage" /><dc:title></dc:title></cc:Work></rdf:RDF></metadata><defs
   id="defs7" /><sodipodi:namedview
   pagecolor="#ffffff"
   bordercolor="#666666"
   borderopacity="1"
   objecttolerance="10"
   gridtolerance="10"
   guidetolerance="10"
   inkscape:pageopacity="0"
   inkscape:pageshadow="2"
   inkscape:window-width="1920"
   inkscape:window-height="1148"
   id="namedview5"
   showgrid="false"
   inkscape:zoom="8.9380977"
   inkscape:cx="37.407071"
   inkscape:cy="38.669882"
   inkscape:window-x="-8"
   inkscape:window-y="-8"
   inkscape:window-maximized="1"
   inkscape:current-layer="Layer_1" />

<path
   style="fill:#ffffff;fill-opacity:1;stroke:#000000;stroke-width:0;stroke-linecap:butt;stroke-linejoin:miter;stroke-miterlimit:4;stroke-opacity:1;stroke-dashoffset:0"
   d="m 60.176031,20.643724 c -3.835616,0.36759 -11.856527,10.857867 -17.370629,16.371969 -5.691978,5.691977 -16.41943,15.365888 -17.279844,16.856168 -0.521939,0.904026 -0.479769,2.03136 -0.06052,3.177555 -1.352282,2.373827 -3.622367,6.818169 -2.451256,7.989281 1.165641,1.165638 5.573156,-1.07017 7.959017,-2.420996 1.125048,0.403572 2.26219,0.407436 3.177554,-0.121043 1.815751,-1.048322 11.194453,-11.557602 16.886432,-17.24958 5.69198,-5.691982 16.34171,-14.511057 16.34171,-17.733785 0,-3.222729 -3.16664,-6.559029 -6.839306,-6.869569 -0.114767,-0.0097 -0.23942,-0.01181 -0.363149,0 z m -0.87761,3.994639 c 2.196331,-0.180739 4.447259,1.638614 4.115689,4.115689 -0.331569,2.477076 -9.339438,9.33944 -14.37465,14.374652 -5.035211,5.035208 -15.20042,16.725125 -16.85617,16.825905 -0.827873,0.0504 -1.887291,-0.554251 -2.723617,-1.392072 -0.836326,-0.83782 -1.426421,-1.915948 -1.361809,-2.723618 0.129222,-1.615339 11.790697,-11.790695 16.825905,-16.825906 5.035212,-5.03521 12.17832,-14.193911 14.374652,-14.37465 z"
   id="rect4239"
   inkscape:connector-curvature="0" /><path
   style="fill:#ffffff;fill-opacity:1;stroke:#000000;stroke-width:0;stroke-linecap:butt;stroke-linejoin:miter;stroke-miterlimit:4;stroke-opacity:1;stroke-dashoffset:0"
   d="m 75.999998,58.276962 -1e-6,4.729127 L 22,72.993909 22,68.26478 z"
   id="rect4265"
   inkscape:connector-curvature="0"
   sodipodi:nodetypes="ccccc" /></svg>