<?xml version="1.0" encoding="UTF-8" standalone="no"?>
<!-- Generator: Adobe Illustrator 15.1.0, SVG Export Plug-In . SVG Version: 6.00 Build 0)  -->

<svg
   xmlns:dc="http://purl.org/dc/elements/1.1/"
   xmlns:cc="http://creativecommons.org/ns#"
   xmlns:rdf="http://www.w3.org/1999/02/22-rdf-syntax-ns#"
   xmlns:svg="http://www.w3.org/2000/svg"
   xmlns="http://www.w3.org/2000/svg"
   xmlns:sodipodi="http://sodipodi.sourceforge.net/DTD/sodipodi-0.dtd"
   xmlns:inkscape="http://www.inkscape.org/namespaces/inkscape"
   version="1.1"
   id="Layer_1"
   x="0px"
   y="0px"
   width="92"
   height="92"
   viewBox="0 0 91.999998 91.999998"
   enable-background="new 0 0 99.997 69.373"
   xml:space="preserve"
   inkscape:version="0.48.4 r9939"
   sodipodi:docname="tool-pen.svg"
   inkscape:export-filename="C:\Development\git\piskel\misc\icons\source\tool-pen@2x.png"
   inkscape:export-xdpi="90"
   inkscape:export-ydpi="90"><metadata
   id="metadata9"><rdf:RDF><cc:Work
       rdf:about=""><dc:format>image/svg+xml</dc:format><dc:type
         rdf:resource="http://purl.org/dc/dcmitype/StillImage" /><dc:title></dc:title></cc:Work></rdf:RDF></metadata><defs
   id="defs7" /><sodipodi:namedview
   pagecolor="#ffffff"
   bordercolor="#666666"
   borderopacity="1"
   objecttolerance="10"
   gridtolerance="10"
   guidetolerance="10"
   inkscape:pageopacity="0"
   inkscape:pageshadow="2"
   inkscape:window-width="1920"
   inkscape:window-height="1148"
   id="namedview5"
   showgrid="false"
   inkscape:zoom="8.9380977"
   inkscape:cx="38.069393"
   inkscape:cy="42.837564"
   inkscape:window-x="-8"
   inkscape:window-y="-8"
   inkscape:window-maximized="1"
   inkscape:current-layer="Layer_1" />

<path
   style="fill:#ffffff;fill-opacity:1;stroke:#000000;stroke-width:0;stroke-linecap:butt;stroke-linejoin:miter;stroke-miterlimit:4;stroke-opacity:1;stroke-dashoffset:0"
   d="m 62.943671,23.602795 c -3.792519,-0.320676 -12.440757,11.026543 -18.318485,16.904271 -5.877728,5.877728 -16.965953,15.87359 -17.854445,17.412505 -2.155889,3.734109 5.053966,11.128594 8.905126,8.905126 1.875005,-1.082534 11.556872,-11.954621 17.434601,-17.83235 5.877727,-5.877727 16.904271,-14.990586 16.904271,-18.318485 0,-3.327899 -3.278548,-6.750392 -7.071068,-7.071067 z m 2.96101,8.352698 C 65.562292,34.513405 56.25497,41.605206 51.055439,46.804735 45.855911,52.004263 35.374437,64.091451 33.664654,64.19552 31.954873,64.299592 29.288573,61.620934 29.422014,59.952879 29.555454,58.284825 41.613271,47.761622 46.812799,42.562094 52.012328,37.362565 59.394034,27.89949 61.66204,27.712853 c 2.268007,-0.186638 4.585031,1.684728 4.242641,4.24264 z"
   id="rect4239"
   inkscape:connector-curvature="0"
   sodipodi:nodetypes="zsssszzzsssszz" /><path
   style="fill:#ffffff;fill-opacity:1;stroke:#000000;stroke-width:0;stroke-linecap:butt;stroke-linejoin:miter;stroke-miterlimit:4;stroke-opacity:1;stroke-dashoffset:0"
   d="m 27.66097,59.606048 6.363961,6.363961 c 0,0 -8.169951,5.13174 -9.839549,3.462142 -1.669597,-1.669597 3.475588,-9.826103 3.475588,-9.826103 z"
   id="rect4261"
   inkscape:connector-curvature="0"
   sodipodi:nodetypes="cczc" /></svg>