<?xml version="1.0" encoding="UTF-8" standalone="no"?>
<!-- Generator: Adobe Illustrator 15.1.0, SVG Export Plug-In . SVG Version: 6.00 Build 0)  -->

<svg
   xmlns:dc="http://purl.org/dc/elements/1.1/"
   xmlns:cc="http://creativecommons.org/ns#"
   xmlns:rdf="http://www.w3.org/1999/02/22-rdf-syntax-ns#"
   xmlns:svg="http://www.w3.org/2000/svg"
   xmlns="http://www.w3.org/2000/svg"
   xmlns:sodipodi="http://sodipodi.sourceforge.net/DTD/sodipodi-0.dtd"
   xmlns:inkscape="http://www.inkscape.org/namespaces/inkscape"
   version="1.1"
   id="Layer_1"
   x="0px"
   y="0px"
   width="92"
   height="92"
   viewBox="0 0 91.999998 91.999998"
   enable-background="new 0 0 99.997 69.373"
   xml:space="preserve"
   inkscape:version="0.48.4 r9939"
   sodipodi:docname="tool-lighten.svg"
   inkscape:export-filename="C:\Development\git\piskel\misc\icons\source\tool-lighten.png"
   inkscape:export-xdpi="45"
   inkscape:export-ydpi="45"><metadata
   id="metadata9"><rdf:RDF><cc:Work
       rdf:about=""><dc:format>image/svg+xml</dc:format><dc:type
         rdf:resource="http://purl.org/dc/dcmitype/StillImage" /><dc:title></dc:title></cc:Work></rdf:RDF></metadata><defs
   id="defs7" /><sodipodi:namedview
   pagecolor="#ffffff"
   bordercolor="#666666"
   borderopacity="1"
   objecttolerance="10"
   gridtolerance="10"
   guidetolerance="10"
   inkscape:pageopacity="0"
   inkscape:pageshadow="2"
   inkscape:window-width="1920"
   inkscape:window-height="1148"
   id="namedview5"
   showgrid="false"
   inkscape:zoom="5.6568543"
   inkscape:cx="112.22609"
   inkscape:cy="52.174379"
   inkscape:window-x="-8"
   inkscape:window-y="-8"
   inkscape:window-maximized="1"
   inkscape:current-layer="Layer_1" />

<path
   style="fill:#ffffff;fill-opacity:1;stroke:none"
   d="M 46,16 C 29.431457,16 16,29.431458 16,46 16,62.568542 29.431457,76 46,76 62.568543,76 76,62.568542 76,46 76,29.431458 62.568543,16 46,16 z m 0,8 c 2.740787,0 5,0.552164 5,2 0,2.570512 -8.97335,6.288411 -8.97335,19.28125 C 42.02665,58.274089 51,63.252327 51,66 51,68.059378 48.190019,68 46,68 33.849736,68 24,58.150265 24,46 24,33.849735 33.849736,24 46,24 z m 6,19.999999 12,0 0,4 -12,0 z"
   id="path4854"
   inkscape:connector-curvature="0"
   sodipodi:nodetypes="ssssssszssssccccc" /><path
   style="fill:#ffffff;fill-opacity:1;stroke:none"
   d="m 31.999999,39.999999 0,4 -4,0 0,4 4,0 0,4 4,0 0,-4 4,0 0,-4 -4,0 0,-4 -4,0 z"
   id="rect4862"
   inkscape:connector-curvature="0" /></svg>