<?xml version="1.0" encoding="UTF-8" standalone="no"?>
<!-- Generator: Adobe Illustrator 15.1.0, SVG Export Plug-In . SVG Version: 6.00 Build 0)  -->

<svg
   xmlns:dc="http://purl.org/dc/elements/1.1/"
   xmlns:cc="http://creativecommons.org/ns#"
   xmlns:rdf="http://www.w3.org/1999/02/22-rdf-syntax-ns#"
   xmlns:svg="http://www.w3.org/2000/svg"
   xmlns="http://www.w3.org/2000/svg"
   xmlns:sodipodi="http://sodipodi.sourceforge.net/DTD/sodipodi-0.dtd"
   xmlns:inkscape="http://www.inkscape.org/namespaces/inkscape"
   version="1.1"
   id="Layer_1"
   x="0px"
   y="0px"
   width="92"
   height="92"
   viewBox="0 0 91.999998 91.999998"
   enable-background="new 0 0 99.997 69.373"
   xml:space="preserve"
   inkscape:version="0.48.4 r9939"
   sodipodi:docname="tool-paint-bucket.svg"
   inkscape:export-filename="C:\Development\git\piskel\misc\icons\source\tool-paint-bucket@2x.png"
   inkscape:export-xdpi="90"
   inkscape:export-ydpi="90"><metadata
   id="metadata9"><rdf:RDF><cc:Work
       rdf:about=""><dc:format>image/svg+xml</dc:format><dc:type
         rdf:resource="http://purl.org/dc/dcmitype/StillImage" /><dc:title></dc:title></cc:Work></rdf:RDF></metadata><defs
   id="defs7" /><sodipodi:namedview
   pagecolor="#ffffff"
   bordercolor="#666666"
   borderopacity="1"
   objecttolerance="10"
   gridtolerance="10"
   guidetolerance="10"
   inkscape:pageopacity="0"
   inkscape:pageshadow="2"
   inkscape:window-width="1920"
   inkscape:window-height="1148"
   id="namedview5"
   showgrid="false"
   inkscape:zoom="8"
   inkscape:cx="66.407246"
   inkscape:cy="58.733165"
   inkscape:window-x="-8"
   inkscape:window-y="-8"
   inkscape:window-maximized="1"
   inkscape:current-layer="Layer_1" />

<path
   inkscape:export-xdpi="45"
   inkscape:export-ydpi="45"
   style="font-size:medium;font-style:normal;font-variant:normal;font-weight:normal;font-stretch:normal;text-indent:0;text-align:start;text-decoration:none;line-height:normal;letter-spacing:normal;word-spacing:normal;text-transform:none;direction:ltr;block-progression:tb;writing-mode:lr-tb;text-anchor:start;baseline-shift:baseline;color:#000000;fill:#ff00ff;fill-opacity:1;fill-rule:nonzero;stroke:none;stroke-width:4;marker:none;visibility:visible;display:inline;overflow:visible;enable-background:accumulate;font-family:Sans;-inkscape-font-specification:Sans"
   d="m 56.581145,27.28125 c -4.028888,0.0018 -6.470567,1.252802 -9.28125,3.4375 l -11.1875,0 -6.90625,0 -3.5,2.40625 c -6.16629,4.317683 -10.130339,9.467376 -5.90625,15.5 2.558956,3.654567 5.844809,4.345383 9.40625,3.375 l 0,0.8125 c 0,6.557341 2.61796,11.90625 8.28125,11.90625 l 13.4375,0 c 5.663291,0 8.28125,-5.348909 8.28125,-11.90625 l 0,-16.96875 c 0.957398,-0.591921 2.375857,-1.260146 4.6875,-1.125 4.686902,0.274012 7.92219,6.169659 9.90625,6 1.193177,-2.249988 -4.615895,-11.875114 -13,-13.09375 -1.595115,-0.231851 -2.982991,-0.344306 -4.21875,-0.34375 z m -23.71875,7.6875 22.6875,0 0,17.84375 c 0,4.273806 -0.933899,7.65625 -4.625,7.65625 l -13.4375,0 c -3.691101,0 -4.625,-3.382444 -4.625,-7.65625 l 0,-2.28125 c 1.165391,-0.615487 2.354128,-1.36327 3.53125,-2.1875 1.192176,-0.834771 8.820045,-6.178747 9.9375,-6.96875 1.117456,-0.790003 1.4375,-1.373269 1.4375,-2.03125 0,-1.104569 -0.895431,-2 -2,-2 -0.399263,0 -0.778495,0.111194 -1.5625,0.65625 -0.784005,0.545056 -8.897295,6.202853 -10.125,7.0625 -0.4184,0.292967 -0.815069,0.569429 -1.21875,0.84375 l -3.65625,2.125 c -2.315031,0.974839 -4.347131,0.85156 -6.125,-1.6875 -2.935047,-4.191682 0.624117,-6.948487 4.9375,-9.96875 l 1.1875,-0.84375 0,10.5 3.65625,-2.125 z"
   id="rect4589"
   inkscape:connector-curvature="0"
   sodipodi:nodetypes="sccccscsssscscssccsssscssssssccsccccc" /></svg>