<?xml version="1.0" encoding="UTF-8" standalone="no"?>
<!-- Generator: Adobe Illustrator 15.1.0, SVG Export Plug-In . SVG Version: 6.00 Build 0)  -->

<svg
   xmlns:dc="http://purl.org/dc/elements/1.1/"
   xmlns:cc="http://creativecommons.org/ns#"
   xmlns:rdf="http://www.w3.org/1999/02/22-rdf-syntax-ns#"
   xmlns:svg="http://www.w3.org/2000/svg"
   xmlns="http://www.w3.org/2000/svg"
   xmlns:sodipodi="http://sodipodi.sourceforge.net/DTD/sodipodi-0.dtd"
   xmlns:inkscape="http://www.inkscape.org/namespaces/inkscape"
   version="1.1"
   id="Layer_1"
   x="0px"
   y="0px"
   width="92"
   height="92"
   viewBox="0 0 91.999998 91.999998"
   enable-background="new 0 0 99.997 69.373"
   xml:space="preserve"
   inkscape:version="0.48.4 r9939"
   sodipodi:docname="tool-move.svg"
   inkscape:export-filename="C:\Development\git\piskel\misc\icons\source\tool-move.png"
   inkscape:export-xdpi="45"
   inkscape:export-ydpi="45"><metadata
   id="metadata9"><rdf:RDF><cc:Work
       rdf:about=""><dc:format>image/svg+xml</dc:format><dc:type
         rdf:resource="http://purl.org/dc/dcmitype/StillImage" /><dc:title></dc:title></cc:Work></rdf:RDF></metadata><defs
   id="defs7" /><sodipodi:namedview
   pagecolor="#ffffff"
   bordercolor="#666666"
   borderopacity="1"
   objecttolerance="10"
   gridtolerance="10"
   guidetolerance="10"
   inkscape:pageopacity="0"
   inkscape:pageshadow="2"
   inkscape:window-width="1920"
   inkscape:window-height="1148"
   id="namedview5"
   showgrid="false"
   inkscape:zoom="5.6568543"
   inkscape:cx="-34.614081"
   inkscape:cy="20.191418"
   inkscape:window-x="-8"
   inkscape:window-y="-8"
   inkscape:window-maximized="1"
   inkscape:current-layer="Layer_1" />

<g
   id="g4836"
   transform="translate(-4.2675963e-4,-2.984376)"
   style="fill:#ffffff;fill-opacity:1"
   inkscape:export-xdpi="90"
   inkscape:export-ydpi="90"><path
     sodipodi:nodetypes="ssccsssccccsczssccsssccssscscss"
     inkscape:connector-curvature="0"
     id="path4755"
     d="m 45,22 c -1.662,0 -3,1.445543 -3,3.25 l 0,21.125 c -0.676561,0.07586 -1.345615,0.13844 -2,0.21875 L 40,29.25 C 40,27.445543 38.662,26 37,26 c -1.662,0 -3,1.445543 -3,3.25 l 0,18.15625 c 0,0 0.06308,4.152765 0.115584,5.230135 -0.247037,0.365135 -0.525606,0.449153 -0.740581,0.285493 C 32.742845,52.149078 29.21875,46.84375 29.21875,46.84375 28.027143,45.141954 25.701788,44.745899 24,45.9375 c -1.701787,1.191609 -2.129105,3.516966 -0.9375,5.21875 0,0 12.565294,18.035587 13.826019,19.62701 1.260725,1.591423 6.894029,5.18549 11.705231,5.18549 C 57.087654,75.96875 64,70.907512 64,60.65625 L 64,56.75 64,50.40625 64,33.25 C 64,31.445543 62.662,30 61,30 c -1.662,0 -3,1.445543 -3,3.25 l 0,14.90625 c -0.649708,-0.223638 -1.324524,-0.409046 -2,-0.625 L 56,27.25 C 56,25.445543 54.662,24 53,24 c -1.662,0 -3,1.445543 -3,3.25 L 50,46 c -0.511381,-0.0741 -1.003571,-0.125 -1.40625,-0.125 -0.171066,0 -0.403931,0.02643 -0.59375,0.03125 L 48,25.25 C 48,23.445543 46.662,22 45,22 z"
     style="fill:#ffffff;fill-opacity:1;stroke:none" /></g></svg>