<?xml version="1.0" encoding="utf-8"?>
<!-- Generator: Adobe Illustrator 15.1.0, SVG Export Plug-In . SVG Version: 6.00 Build 0)  -->
<!DOCTYPE svg PUBLIC "-//W3C//DTD SVG 1.1//EN" "http://www.w3.org/Graphics/SVG/1.1/DTD/svg11.dtd">
<svg version="1.1" id="Layer_1" xmlns="http://www.w3.org/2000/svg" xmlns:xlink="http://www.w3.org/1999/xlink" x="0px" y="0px"
	 width="99.997px" height="69.373px" viewBox="0 0 99.997 69.373" enable-background="new 0 0 99.997 69.373" xml:space="preserve">
<path fill="#010101" d="M81.635,0.222c0.553-0.327,1.242-0.219,1.85-0.133c1.502,0.296,2.658,1.426,3.533,2.62
	c0.608-0.379,1.252-0.777,1.983-0.842c0.595-0.015,1.09,0.416,1.394,0.889c0.568,0.909,0.76,2.02,1.442,2.864
	C92,5.829,92.246,5.941,92.482,6.044c0.968,0.409,1.846,0.996,2.688,1.615c0.361,0.223,0.396,0.691,0.529,1.056
	c0.478,1.579,0.306,3.241,0.149,4.853c-0.035,0.812-0.104,1.659,0.172,2.438c0.42,0.954,1.229,1.655,1.746,2.547
	c1.191,2.13,2.146,4.467,2.229,6.937v0.088c-0.071,1.268-0.203,2.647-1.062,3.653c-0.707,0.846-1.85,1.101-2.896,1.223
	c-0.747,0.104-1.508,0.127-2.258,0.077c-1.912-0.275-3.812-0.628-5.724-0.911c-0.34-0.052-0.719-0.055-1,0.167
	c-0.391,0.281-0.494,0.786-0.537,1.235c-0.068,1.177,0.133,2.405-0.312,3.532c-0.227,0.604-0.768,0.999-1.266,1.371
	c-1.092,0.753-2.313,1.291-3.441,1.981c-0.164,0.115-0.125,0.348-0.125,0.521c0.075,0.916,0.332,1.821,0.253,2.747
	c-0.021,0.597-0.271,1.188-0.72,1.587c-0.768,0.709-1.434,1.519-2.068,2.346c-0.104,0.142-0.222,0.283-0.256,0.461
	c-0.264,1.272-0.385,2.576-0.74,3.83c-0.201,0.641-0.416,1.34-0.943,1.793c-0.633,0.492-1.456-0.342-2.098,0.164
	c-1.191,0.882-1.558,2.412-2.379,3.582c-0.469,0.595-1.104,1.039-1.805,1.319c-0.331,4.37-0.625,8.741-0.896,13.115h-5.166
	c0.16-2.783,0.32-5.567,0.486-8.351c0.203-1.728-0.097-3.444-0.312-5.152c-0.017-0.364-0.43-0.709-0.785-0.543
	c-1.037,0.3-2.131,0.459-3.204,0.289c-0.87-0.227-1.536-0.877-2.11-1.533c-1.765,1.695-4.326,2.275-6.712,2.025
	c-0.471-0.726-0.792-1.629-1.603-2.049c-0.539-0.324-1.198-0.155-1.729,0.098c-1.214,0.558-1.945,1.805-3.197,2.305
	c-1.1,0.51-2.359,0.188-3.41-0.291c-1.127-0.54-2.176-1.242-3.186-1.975c-0.52,0.236-0.837,0.728-1.123,1.195
	c-0.968,0.117-1.964,0.449-2.923,0.103c-1.548-0.399-2.625-1.652-3.94-2.472c-0.886,0.66-1.608,1.58-2.68,1.957
	c-0.698,0.24-1.468,0.399-2.196,0.207c-0.825-0.181-1.609-0.5-2.425-0.705c-0.27-0.078-0.558-0.037-0.807,0.082
	c-1.433,0.646-2.197,2.23-3.688,2.779c-0.307,0.148-0.632,0.043-0.936-0.047c-0.346,3.812-0.79,7.618-1.159,11.43
	c-1.811,0.006-3.623-0.002-5.434,0.004c-0.078-0.656-0.297-1.312-0.188-1.978c0.27-2.282,0.637-4.551,0.9-6.833
	c0.181-1.895-0.835-3.648-2.096-4.977c0.154-0.737-0.056-1.502-0.528-2.078c-1.24-1.65-3.362-2.342-4.546-4.043
	c-0.357-0.53-0.698-1.256-0.328-1.864c0.285-0.724,0.94-1.381,0.769-2.21c-0.04-0.262-0.165-0.502-0.347-0.691
	c-1.07-1.188-1.971-2.514-2.849-3.844c-0.403-0.59-0.372-1.338-0.438-2.02c-0.141-1.194,0.732-2.201,0.798-3.364
	c-0.196-0.665-0.84-1.073-1.192-1.654C0.638,31.785,0.077,30.231,0,28.62v-0.446c0.086-0.751,0.078-1.537,0.396-2.239
	c0.522-1.006,1.566-1.623,2.075-2.636c-0.222-0.968-0.747-1.833-0.966-2.799c-0.097-1.466,0.425-2.955,1.404-4.049
	c0.664-0.035,1.319-0.157,1.968-0.296c0.633-0.125,1.1-0.631,1.448-1.145c0.703-1.045,0.832-2.351,1.479-3.422
	c0.255-0.444,0.607-0.855,1.08-1.074c0.692-0.327,1.395-0.631,2.119-0.88c0.38-0.117,0.779-0.237,1.18-0.167
	c0.894,0.134,1.771,0.361,2.665,0.5c0.624,0.088,1.321-0.085,1.74-0.58c0.379-0.424,0.483-1.003,0.574-1.544
	c0.926-0.306,1.929-0.646,2.907-0.389c1.367,0.311,2.72,0.672,4.091,0.96c0.748-0.367,1.104-1.208,1.849-1.582
	c0.884-0.481,1.947-0.333,2.873-0.064c1.13,0.322,1.991,1.168,3.041,1.655c0.735-0.438,1.304-1.316,2.246-1.275
	c1.698,0.444,3.091,1.803,4.899,1.868c1.229,0.001,1.779-1.354,2.912-1.594c0.744-0.228,1.496,0.125,2.104,0.54
	c0.745,0.517,1.432,1.11,2.132,1.684c1.052-0.622,2.251-1.085,3.492-1.026c1.448,0.261,2.847,0.754,4.294,1.011
	c0.615-0.026,0.967-0.649,1.489-0.902c1.062-0.497,2.237-0.755,3.409-0.756c1.316,0.169,2.543,0.712,3.82,1.042
	c0.623-0.171,1.135-0.659,1.803-0.686c1.026-0.025,2.055-0.006,3.08-0.008c0.401-0.321,0.769-0.709,1.26-0.9
	c0.869-0.37,1.744-0.836,2.703-0.898c0.994,0.08,1.975,0.287,2.964,0.402c0.235-1.401,0.842-2.703,1.481-3.958
	c1.241-0.227,2.463-0.58,3.66-0.973C80.409,1.51,80.956,0.784,81.635,0.222z"/>
</svg>
